<svg width="131" height="24" viewBox="0 0 131 24" fill="none" xmlns="http://www.w3.org/2000/svg">
<path d="M0.804893 2.45465C4.09057 2.56561 7.54845 2.26536 10.8204 2.44159C13.6307 2.59172 16.82 3.83838 18.6867 5.85525C18.8796 6.06411 19.3755 6.58628 19.3273 6.86041C19.2929 7.04317 18.3836 7.74809 18.2527 8.02223C18.1701 8.19193 18.1907 8.27026 18.239 8.44649C18.3147 8.74021 18.7074 9.84981 18.8382 10.0978C18.8727 10.1631 18.9071 10.2349 18.9691 10.2741C19.1826 10.4046 20.0712 10.3524 20.3605 10.372C20.8083 10.4046 21.1596 10.372 21.2353 10.8615C21.3524 11.6447 21.4075 12.8457 21.3455 13.6355C21.2767 14.5297 21.1733 14.5297 20.2985 14.6668C19.961 14.719 19.2791 14.6602 19.1206 14.9605L18.5214 16.9643C18.6247 17.3429 19.6924 18.0086 19.7406 18.2958C19.7681 18.4655 19.3617 19.0464 19.2377 19.2161C19.038 19.4968 18.7556 19.8427 18.5214 20.1038C18.3285 20.3192 17.4193 21.233 17.1988 21.2852C16.8751 21.357 15.7592 20.378 15.2632 20.6129L13.5343 21.5006C13.4034 21.8988 13.6927 22.8713 13.3208 23.1193C13.1692 23.2238 12.7215 23.3151 12.5149 23.3673C11.9294 23.5175 11.2612 23.648 10.655 23.6741C7.43824 23.8373 4.06991 23.5436 0.839335 23.6741C-0.22145 23.5893 0.0196374 22.9105 0.0196374 22.1794C-0.0216918 15.8678 0.0471903 9.5104 0.0196374 3.17915C0.0196374 2.77447 0.412265 2.50034 0.811782 2.46117L0.804893 2.45465ZM5.71619 6.80167C5.32356 6.85389 5.22712 6.93874 5.19268 7.31731C5.13758 7.88516 5.2409 8.4726 5.24779 9.03392C5.26845 10.6004 5.25468 12.1734 5.24779 13.7334C5.2409 15.2934 5.04114 17.2254 5.1858 18.7919C5.21335 19.053 5.3029 19.19 5.58531 19.2227C6.467 19.3206 8.07196 19.2618 9.00186 19.2227C11.6814 19.1182 13.9132 18.1914 14.9739 15.7307C16.4893 12.2191 15.0704 7.71546 10.7997 6.95179C9.58736 6.7364 6.92162 6.64502 5.7093 6.80167H5.71619Z" fill="#9BFFC5"/>
<path d="M23.9219 15.6852C23.9219 14.308 24.1423 13.1005 24.5969 12.0562C25.0447 11.0184 25.6439 10.1503 26.381 9.46494C27.1249 8.77308 27.979 8.25744 28.9365 7.90498C29.9008 7.55904 30.879 7.38281 31.8846 7.38281C34.2473 7.38281 36.0865 8.0551 37.409 9.39315C38.7315 10.7312 39.3928 12.7285 39.3928 15.385C39.3928 15.5873 39.3928 15.8092 39.379 16.0573C39.3652 16.3053 39.3515 16.5338 39.3308 16.7296H28.0204C28.1306 17.9893 28.6127 18.9618 29.4807 19.6537C30.3417 20.3456 31.5953 20.685 33.2347 20.685C34.1991 20.685 35.0739 20.6066 35.8729 20.4435C36.672 20.2803 37.2988 20.1106 37.7603 19.9344L38.2838 22.9042C38.0634 23.0021 37.7672 23.1065 37.3814 23.2175C36.9957 23.3284 36.5617 23.4263 36.0727 23.5177C35.5836 23.6091 35.0532 23.6809 34.4815 23.7396C33.9098 23.7984 33.3312 23.831 32.7457 23.831C31.2372 23.831 29.9284 23.6287 28.8125 23.2175C27.6966 22.8063 26.7805 22.2384 26.0572 21.5074C25.334 20.7763 24.8036 19.9213 24.4523 18.9292C24.101 17.9436 23.9288 16.8536 23.9288 15.6787L23.9219 15.6852ZM35.4321 14.0665C35.4321 13.5639 35.3563 13.094 35.2048 12.6436C35.0532 12.1933 34.8259 11.8016 34.5297 11.4753C34.2335 11.1489 33.8753 10.8878 33.4483 10.6986C33.0212 10.5093 32.5115 10.4114 31.926 10.4114C31.3405 10.4114 30.7756 10.5158 30.321 10.7247C29.8595 10.9335 29.4738 11.2077 29.1569 11.5471C28.8401 11.8865 28.5921 12.2781 28.4199 12.7154C28.2477 13.1527 28.1237 13.6031 28.0617 14.0665H35.439H35.4321Z" fill="#9BFFC5" stroke="#9BFFC5" stroke-width="0.5" stroke-miterlimit="10"/>
<path d="M47.1343 20.8416C48.1814 20.8416 48.9459 20.7241 49.4281 20.4957C49.9103 20.2672 50.1514 19.8691 50.1514 19.3143C50.1514 18.7921 49.8965 18.3679 49.3799 18.0284C48.8633 17.689 48.0229 17.317 46.8382 16.9188C46.1149 16.6773 45.4536 16.4228 44.8544 16.1552C44.2551 15.8876 43.7316 15.5677 43.2976 15.2088C42.8568 14.8498 42.5124 14.4125 42.2644 13.9033C42.0095 13.3942 41.8855 12.7676 41.8855 12.0301C41.8855 10.5941 42.4641 9.45842 43.6214 8.62948C44.7786 7.80054 46.356 7.38281 48.3398 7.38281C49.3455 7.38281 50.3098 7.46766 51.2259 7.63737C52.1421 7.80707 52.8309 7.97025 53.2924 8.13342L52.5691 11.0706C52.1283 10.8878 51.5772 10.7247 50.8953 10.5745C50.2203 10.4244 49.4281 10.3526 48.5327 10.3526C47.7267 10.3526 47.0655 10.4766 46.5626 10.7247C46.0598 10.9727 45.8118 11.3578 45.8118 11.88C45.8118 12.141 45.86 12.3695 45.9565 12.5718C46.0529 12.7742 46.2251 12.9569 46.4662 13.1266C46.7073 13.2963 47.0241 13.466 47.4168 13.6357C47.8094 13.8054 48.2916 13.9817 48.8564 14.1579C49.7932 14.4777 50.5922 14.791 51.2535 15.1043C51.9079 15.4176 52.452 15.7636 52.8791 16.1552C53.3062 16.5468 53.6162 16.9906 53.8159 17.4867C54.0157 17.9828 54.1121 18.5832 54.1121 19.2882C54.1121 20.7894 53.5059 21.9186 52.2936 22.6888C51.0813 23.459 49.3455 23.8441 47.0999 23.8441C45.5914 23.8441 44.3791 23.7266 43.4629 23.4981C42.5468 23.2697 41.8993 23.0804 41.5273 22.9433L42.2162 19.9148C42.8086 20.1367 43.5111 20.3456 44.3308 20.5414C45.1505 20.7437 46.0873 20.8416 47.1343 20.8416Z" fill="#9BFFC5" stroke="#9BFFC5" stroke-width="0.5" stroke-miterlimit="10"/>
<path d="M62.7712 7.38153C64.08 7.38153 65.189 7.53165 66.0845 7.83189C66.9799 8.13214 67.6963 8.54987 68.2336 9.09162C68.7709 9.63336 69.1497 10.2861 69.3839 11.0563C69.6181 11.8265 69.7283 12.6684 69.7283 13.5888V23.0922C69.1153 23.2097 68.1923 23.3598 66.9593 23.5295C65.7263 23.6992 64.328 23.784 62.7781 23.784C61.7518 23.784 60.8081 23.6927 59.9608 23.5164C59.1067 23.3337 58.3834 23.0465 57.7773 22.6483C57.1711 22.2502 56.7096 21.728 56.3652 21.0884C56.0277 20.4487 55.8555 19.6589 55.8555 18.719C55.8555 17.7791 56.0483 17.0612 56.4272 16.4411C56.8129 15.821 57.3295 15.3184 57.9839 14.9268C58.6383 14.5352 59.396 14.2545 60.2639 14.0848C61.125 13.9151 62.0273 13.8303 62.971 13.8303C63.4118 13.8303 63.8665 13.8564 64.3486 13.9021C64.8308 13.9543 65.3405 14.0391 65.8916 14.1566V13.5561C65.8916 13.1384 65.8365 12.7337 65.7263 12.3551C65.6161 11.9766 65.4232 11.6437 65.1546 11.35C64.879 11.0628 64.5208 10.8343 64.0731 10.6777C63.6254 10.521 63.0605 10.4362 62.3855 10.4362C61.4694 10.4362 60.629 10.4949 59.8644 10.6189C59.0998 10.7364 58.473 10.88 57.9977 11.0367L57.5086 8.0995C58.0115 7.93633 58.7416 7.77968 59.706 7.6165C60.6703 7.45985 61.6967 7.375 62.785 7.375L62.7712 7.38153ZM63.095 20.8991C64.3211 20.8991 65.2441 20.8403 65.8847 20.7163V16.7022C65.6643 16.6434 65.3474 16.5847 64.9341 16.5194C64.5208 16.4607 64.0593 16.428 63.5565 16.428C63.1156 16.428 62.6748 16.4607 62.2271 16.5194C61.7793 16.5782 61.3729 16.6891 61.0147 16.8523C60.6566 17.0089 60.3672 17.2374 60.1468 17.5246C59.9264 17.8118 59.8162 18.1773 59.8162 18.6211C59.8162 19.4827 60.1124 20.0767 60.6979 20.403C61.2903 20.7294 62.0824 20.8991 63.0881 20.8991H63.095Z" fill="#9BFFC5" stroke="#9BFFC5" stroke-width="0.5" stroke-miterlimit="10"/>
<path d="M89.2568 15.6259C89.2568 16.8857 89.057 18.0214 88.6506 19.0265C88.2442 20.0382 87.6656 20.8998 86.9148 21.6178C86.1571 22.3358 85.2479 22.884 84.1802 23.2691C83.1056 23.6477 81.8933 23.837 80.5432 23.837C79.1931 23.837 77.9808 23.7456 76.7891 23.5694C75.5975 23.3932 74.6125 23.1908 73.8203 22.9689V0.789943L77.7879 0.189453V8.30912C78.2494 8.08719 78.8074 7.89138 79.4755 7.70863C80.1437 7.52587 80.8807 7.44102 81.6866 7.44102C82.8852 7.44102 83.9666 7.63683 84.9172 8.02845C85.8678 8.42008 86.6599 8.97488 87.2937 9.69285C87.9274 10.4108 88.4164 11.2789 88.754 12.2841C89.0915 13.2958 89.2637 14.4054 89.2637 15.6259H89.2568ZM85.1927 15.5672C85.1927 14.0268 84.8621 12.8128 84.194 11.9121C83.5258 11.0113 82.4719 10.561 81.0323 10.561C80.3779 10.561 79.7579 10.6523 79.1793 10.8286C78.6007 11.0113 78.1323 11.2071 77.7879 11.429V20.4494C78.0703 20.5082 78.4354 20.5669 78.8831 20.6126C79.3309 20.6648 79.875 20.6909 80.5088 20.6909C81.976 20.6909 83.1194 20.2341 83.9529 19.3268C84.7795 18.4195 85.1996 17.1663 85.1996 15.5672H85.1927Z" fill="#9BFFC5" stroke="#9BFFC5" stroke-width="0.5" stroke-miterlimit="10"/>
<path d="M98.5702 23.7456C97.3923 23.726 96.4141 23.6085 95.6358 23.3866C94.8574 23.1647 94.2443 22.8514 93.7828 22.4402C93.3213 22.029 92.9976 21.5199 92.8185 20.9129C92.6325 20.3059 92.543 19.6075 92.543 18.8307V0.789943L96.5106 0.189453V18.1389C96.5106 18.5762 96.5519 18.9482 96.6277 19.2485C96.7034 19.5487 96.8412 19.8033 97.041 20.0121C97.2407 20.221 97.5025 20.3842 97.8469 20.4886C98.1844 20.5996 98.6184 20.6844 99.1419 20.7432L98.5839 23.7391L98.5702 23.7456Z" fill="#9BFFC5" stroke="#9BFFC5" stroke-width="0.5" stroke-miterlimit="10"/>
<path d="M100.629 15.6852C100.629 14.308 100.856 13.1005 101.304 12.0562C101.752 11.0184 102.344 10.1503 103.088 9.46494C103.832 8.77308 104.686 8.25744 105.644 7.90498C106.608 7.55904 107.586 7.38281 108.592 7.38281C110.954 7.38281 112.793 8.0551 114.116 9.39315C115.439 10.7312 116.1 12.7285 116.1 15.385C116.1 15.5873 116.1 15.8092 116.086 16.0573C116.072 16.3053 116.059 16.5338 116.038 16.7296H104.727C104.838 17.9893 105.32 18.9618 106.188 19.6537C107.049 20.3456 108.302 20.685 109.942 20.685C110.906 20.685 111.781 20.6066 112.58 20.4435C113.379 20.2803 114.006 20.1106 114.467 19.9344L114.991 22.9042C114.77 23.0021 114.474 23.1065 114.088 23.2175C113.703 23.3284 113.269 23.4263 112.78 23.5177C112.291 23.6091 111.76 23.6809 111.189 23.7396C110.617 23.7984 110.038 23.831 109.453 23.831C107.944 23.831 106.635 23.6287 105.52 23.2175C104.404 22.8063 103.488 22.2384 102.764 21.5074C102.041 20.7763 101.504 19.9213 101.159 18.9292C100.808 17.9436 100.636 16.8536 100.636 15.6787L100.629 15.6852ZM112.139 14.0665C112.139 13.5639 112.063 13.094 111.912 12.6436C111.76 12.1933 111.533 11.8016 111.237 11.4753C110.941 11.1489 110.582 10.8878 110.155 10.6986C109.728 10.5093 109.219 10.4114 108.633 10.4114C108.048 10.4114 107.483 10.5158 107.028 10.7247C106.567 10.9335 106.181 11.2077 105.864 11.5471C105.547 11.8865 105.299 12.2781 105.127 12.7154C104.955 13.1527 104.831 13.6031 104.769 14.0665H112.146H112.139Z" fill="#9BFFC5" stroke="#9BFFC5" stroke-width="0.5" stroke-miterlimit="10"/>
<path d="M123.841 20.8416C124.888 20.8416 125.653 20.7241 126.135 20.4957C126.617 20.2672 126.858 19.8691 126.858 19.3143C126.858 18.7921 126.604 18.3679 126.087 18.0284C125.57 17.689 124.73 17.317 123.545 16.9188C122.822 16.6773 122.161 16.4228 121.561 16.1552C120.962 15.8876 120.439 15.5677 120.005 15.2088C119.564 14.8498 119.219 14.4125 118.971 13.9033C118.717 13.3942 118.593 12.7676 118.593 12.0301C118.593 10.5941 119.171 9.45842 120.328 8.62948C121.486 7.80054 123.063 7.38281 125.047 7.38281C126.052 7.38281 127.017 7.46766 127.933 7.63737C128.849 7.80707 129.538 7.97025 129.999 8.13342L129.276 11.0706C128.835 10.8878 128.284 10.7247 127.602 10.5745C126.927 10.4244 126.135 10.3526 125.24 10.3526C124.434 10.3526 123.773 10.4766 123.27 10.7247C122.767 10.9727 122.519 11.3578 122.519 11.88C122.519 12.141 122.567 12.3695 122.664 12.5718C122.76 12.7742 122.932 12.9569 123.173 13.1266C123.414 13.2963 123.731 13.466 124.124 13.6357C124.516 13.8054 124.999 13.9817 125.563 14.1579C126.5 14.4777 127.299 14.791 127.961 15.1043C128.615 15.4176 129.159 15.7636 129.586 16.1552C130.013 16.5468 130.323 16.9906 130.523 17.4867C130.723 17.9893 130.819 18.5832 130.819 19.2882C130.819 20.7894 130.213 21.9186 129.001 22.6888C127.788 23.459 126.053 23.8441 123.807 23.8441C122.298 23.8441 121.086 23.7266 120.17 23.4981C119.254 23.2697 118.606 23.0804 118.234 22.9433L118.923 19.9148C119.516 20.1367 120.218 20.3456 121.038 20.5414C121.858 20.7437 122.794 20.8416 123.841 20.8416Z" fill="#9BFFC5" stroke="#9BFFC5" stroke-width="0.5" stroke-miterlimit="10"/>
</svg>
