<svg width="131" height="24" viewBox="0 0 131 24" fill="none" xmlns="http://www.w3.org/2000/svg">
<path d="M0.804893 2.45416C4.09057 2.56512 7.54845 2.26487 10.8204 2.4411C13.6307 2.59123 16.82 3.8379 18.6867 5.85476C18.8796 6.06362 19.3755 6.58579 19.3273 6.85992C19.2929 7.04268 18.3836 7.7476 18.2527 8.02174C18.1701 8.19144 18.1907 8.26977 18.239 8.446C18.3147 8.73972 18.7074 9.84932 18.8382 10.0973C18.8727 10.1626 18.9071 10.2344 18.9691 10.2736C19.1826 10.4041 20.0712 10.3519 20.3605 10.3715C20.8083 10.4041 21.1596 10.3715 21.2353 10.861C21.3524 11.6443 21.4075 12.8452 21.3455 13.635C21.2767 14.5292 21.1733 14.5292 20.2985 14.6663C19.961 14.7185 19.2791 14.6598 19.1206 14.96L18.5214 16.9638C18.6247 17.3424 19.6924 18.0081 19.7406 18.2953C19.7681 18.465 19.3617 19.0459 19.2377 19.2156C19.038 19.4963 18.7556 19.8422 18.5214 20.1033C18.3285 20.3187 17.4193 21.2325 17.1988 21.2847C16.8751 21.3565 15.7592 20.3775 15.2632 20.6124L13.5343 21.5001C13.4034 21.8983 13.6927 22.8708 13.3208 23.1188C13.1692 23.2233 12.7215 23.3146 12.5149 23.3669C11.9294 23.517 11.2612 23.6475 10.655 23.6736C7.43824 23.8368 4.06991 23.5431 0.839335 23.6736C-0.22145 23.5888 0.0196374 22.91 0.0196374 22.1789C-0.0216918 15.8673 0.0471903 9.50991 0.0196374 3.17866C0.0196374 2.77398 0.412265 2.49985 0.811782 2.46069L0.804893 2.45416ZM5.71619 6.80118C5.32356 6.8534 5.22712 6.93825 5.19268 7.31682C5.13758 7.88467 5.2409 8.47211 5.24779 9.03344C5.26845 10.5999 5.25468 12.173 5.24779 13.7329C5.2409 15.2929 5.04114 17.2249 5.1858 18.7914C5.21335 19.0525 5.3029 19.1895 5.58531 19.2222C6.467 19.3201 8.07196 19.2613 9.00186 19.2222C11.6814 19.1177 13.9132 18.1909 14.9739 15.7302C16.4893 12.2186 15.0704 7.71497 10.7997 6.9513C9.58736 6.73591 6.92162 6.64453 5.7093 6.80118H5.71619Z" fill="#065238"/>
<path d="M23.9219 15.6845C23.9219 14.3073 24.1423 13.0998 24.5969 12.0555C25.0447 11.0177 25.6439 10.1496 26.381 9.46421C27.1249 8.77234 27.979 8.25671 28.9365 7.90424C29.9008 7.55831 30.879 7.38208 31.8846 7.38208C34.2473 7.38208 36.0865 8.05437 37.409 9.39241C38.7315 10.7305 39.3928 12.7277 39.3928 15.3843C39.3928 15.5866 39.3928 15.8085 39.379 16.0565C39.3652 16.3046 39.3515 16.533 39.3308 16.7288H28.0204C28.1306 17.9886 28.6127 18.9611 29.4807 19.653C30.3417 20.3448 31.5953 20.6842 33.2347 20.6842C34.1991 20.6842 35.0739 20.6059 35.8729 20.4427C36.672 20.2796 37.2988 20.1098 37.7603 19.9336L38.2838 22.9034C38.0634 23.0013 37.7672 23.1058 37.3814 23.2167C36.9957 23.3277 36.5617 23.4256 36.0727 23.517C35.5836 23.6084 35.0532 23.6801 34.4815 23.7389C33.9098 23.7976 33.3312 23.8303 32.7457 23.8303C31.2372 23.8303 29.9284 23.6279 28.8125 23.2167C27.6966 22.8055 26.7805 22.2377 26.0572 21.5066C25.334 20.7756 24.8036 19.9206 24.4523 18.9284C24.101 17.9429 23.9288 16.8528 23.9288 15.678L23.9219 15.6845ZM35.4321 14.0658C35.4321 13.5632 35.3563 13.0933 35.2048 12.6429C35.0532 12.1925 34.8259 11.8009 34.5297 11.4745C34.2335 11.1482 33.8753 10.8871 33.4483 10.6978C33.0212 10.5085 32.5115 10.4106 31.926 10.4106C31.3405 10.4106 30.7756 10.5151 30.321 10.7239C29.8595 10.9328 29.4738 11.2069 29.1569 11.5463C28.8401 11.8858 28.5921 12.2774 28.4199 12.7147C28.2477 13.152 28.1237 13.6024 28.0617 14.0658H35.439H35.4321Z" fill="#065238" stroke="#183B32" stroke-width="0.5" stroke-miterlimit="10"/>
<path d="M47.1343 20.8409C48.1814 20.8409 48.9459 20.7234 49.4281 20.4949C49.9103 20.2665 50.1514 19.8683 50.1514 19.3135C50.1514 18.7914 49.8965 18.3671 49.3799 18.0277C48.8633 17.6883 48.0229 17.3163 46.8382 16.9181C46.1149 16.6766 45.4536 16.4221 44.8544 16.1544C44.2551 15.8868 43.7316 15.567 43.2976 15.208C42.8568 14.849 42.5124 14.4117 42.2644 13.9026C42.0095 13.3935 41.8855 12.7669 41.8855 12.0293C41.8855 10.5934 42.4641 9.45768 43.6214 8.62875C44.7786 7.79981 46.356 7.38208 48.3398 7.38208C49.3455 7.38208 50.3098 7.46693 51.2259 7.63664C52.1421 7.80634 52.8309 7.96952 53.2924 8.13269L52.5691 11.0699C52.1283 10.8871 51.5772 10.7239 50.8953 10.5738C50.2203 10.4237 49.4281 10.3519 48.5327 10.3519C47.7267 10.3519 47.0655 10.4759 46.5626 10.7239C46.0598 10.972 45.8118 11.3571 45.8118 11.8792C45.8118 12.1403 45.86 12.3688 45.9565 12.5711C46.0529 12.7734 46.2251 12.9562 46.4662 13.1259C46.7073 13.2956 47.0241 13.4653 47.4168 13.635C47.8094 13.8047 48.2916 13.9809 48.8564 14.1572C49.7932 14.477 50.5922 14.7903 51.2535 15.1036C51.9079 15.4169 52.452 15.7628 52.8791 16.1544C53.3062 16.5461 53.6162 16.9899 53.8159 17.486C54.0157 17.982 54.1121 18.5825 54.1121 19.2874C54.1121 20.7887 53.5059 21.9178 52.2936 22.688C51.0813 23.4582 49.3455 23.8433 47.0999 23.8433C45.5914 23.8433 44.3791 23.7258 43.4629 23.4974C42.5468 23.2689 41.8993 23.0797 41.5273 22.9426L42.2162 19.914C42.8086 20.136 43.5111 20.3448 44.3308 20.5406C45.1505 20.743 46.0873 20.8409 47.1343 20.8409Z" fill="#065238" stroke="#183B32" stroke-width="0.5" stroke-miterlimit="10"/>
<path d="M62.7712 7.38202C64.08 7.38202 65.189 7.53214 66.0845 7.83238C66.9799 8.13263 67.6963 8.55036 68.2336 9.09211C68.7709 9.63385 69.1497 10.2866 69.3839 11.0568C69.6181 11.8269 69.7283 12.6689 69.7283 13.5893V23.0927C69.1153 23.2101 68.1923 23.3603 66.9593 23.53C65.7263 23.6997 64.328 23.7845 62.7781 23.7845C61.7518 23.7845 60.8081 23.6931 59.9608 23.5169C59.1067 23.3342 58.3834 23.047 57.7773 22.6488C57.1711 22.2507 56.7096 21.7285 56.3652 21.0888C56.0277 20.4492 55.8555 19.6594 55.8555 18.7195C55.8555 17.7796 56.0483 17.0616 56.4272 16.4416C56.8129 15.8215 57.3295 15.3189 57.9839 14.9273C58.6383 14.5357 59.396 14.255 60.2639 14.0853C61.125 13.9156 62.0273 13.8308 62.971 13.8308C63.4118 13.8308 63.8665 13.8569 64.3486 13.9025C64.8308 13.9548 65.3405 14.0396 65.8916 14.1571V13.5566C65.8916 13.1389 65.8365 12.7342 65.7263 12.3556C65.6161 11.9771 65.4232 11.6442 65.1546 11.3505C64.879 11.0633 64.5208 10.8348 64.0731 10.6782C63.6254 10.5215 63.0605 10.4367 62.3855 10.4367C61.4694 10.4367 60.629 10.4954 59.8644 10.6194C59.0998 10.7369 58.473 10.8805 57.9977 11.0372L57.5086 8.09999C58.0115 7.93682 58.7416 7.78017 59.706 7.61699C60.6703 7.46034 61.6967 7.37549 62.785 7.37549L62.7712 7.38202ZM63.095 20.8996C64.3211 20.8996 65.2441 20.8408 65.8847 20.7168V16.7027C65.6643 16.6439 65.3474 16.5852 64.9341 16.5199C64.5208 16.4612 64.0593 16.4285 63.5565 16.4285C63.1156 16.4285 62.6748 16.4612 62.2271 16.5199C61.7793 16.5786 61.3729 16.6896 61.0147 16.8528C60.6566 17.0094 60.3672 17.2379 60.1468 17.5251C59.9264 17.8123 59.8162 18.1778 59.8162 18.6216C59.8162 19.4832 60.1124 20.0771 60.6979 20.4035C61.2903 20.7299 62.0824 20.8996 63.0881 20.8996H63.095Z" fill="#065238" stroke="#183B32" stroke-width="0.5" stroke-miterlimit="10"/>
<path d="M89.2568 15.6257C89.2568 16.8854 89.057 18.0211 88.6506 19.0263C88.2442 20.038 87.6656 20.8996 86.9148 21.6175C86.1571 22.3355 85.2479 22.8838 84.1802 23.2689C83.1056 23.6475 81.8933 23.8367 80.5432 23.8367C79.1931 23.8367 77.9808 23.7454 76.7891 23.5691C75.5975 23.3929 74.6125 23.1906 73.8203 22.9686V0.789699L77.7879 0.189209V8.30887C78.2494 8.08695 78.8074 7.89114 79.4755 7.70838C80.1437 7.52562 80.8807 7.44077 81.6866 7.44077C82.8852 7.44077 83.9666 7.63658 84.9172 8.02821C85.8678 8.41983 86.6599 8.97463 87.2937 9.69261C87.9274 10.4106 88.4164 11.2787 88.754 12.2838C89.0915 13.2955 89.2637 14.4051 89.2637 15.6257H89.2568ZM85.1927 15.567C85.1927 14.0266 84.8621 12.8125 84.194 11.9118C83.5258 11.0111 82.4719 10.5607 81.0323 10.5607C80.3779 10.5607 79.7579 10.6521 79.1793 10.8283C78.6007 11.0111 78.1323 11.2069 77.7879 11.4288V20.4492C78.0703 20.5079 78.4354 20.5667 78.8831 20.6124C79.3309 20.6646 79.875 20.6907 80.5088 20.6907C81.976 20.6907 83.1194 20.2338 83.9529 19.3265C84.7795 18.4193 85.1996 17.1661 85.1996 15.567H85.1927Z" fill="#065238" stroke="#183B32" stroke-width="0.5" stroke-miterlimit="10"/>
<path d="M98.5702 23.7454C97.3923 23.7258 96.4141 23.6083 95.6358 23.3864C94.8574 23.1645 94.2443 22.8512 93.7828 22.44C93.3213 22.0288 92.9976 21.5196 92.8185 20.9126C92.6325 20.3056 92.543 19.6072 92.543 18.8305V0.789699L96.5106 0.189209V18.1386C96.5106 18.5759 96.5519 18.948 96.6277 19.2482C96.7034 19.5485 96.8412 19.803 97.041 20.0119C97.2407 20.2208 97.5025 20.3839 97.8469 20.4884C98.1844 20.5993 98.6184 20.6842 99.1419 20.7429L98.5839 23.7388L98.5702 23.7454Z" fill="#065238" stroke="#183B32" stroke-width="0.5" stroke-miterlimit="10"/>
<path d="M100.629 15.6845C100.629 14.3073 100.856 13.0998 101.304 12.0555C101.752 11.0177 102.344 10.1496 103.088 9.46421C103.832 8.77234 104.686 8.25671 105.644 7.90424C106.608 7.55831 107.586 7.38208 108.592 7.38208C110.954 7.38208 112.793 8.05437 114.116 9.39241C115.439 10.7305 116.1 12.7277 116.1 15.3843C116.1 15.5866 116.1 15.8085 116.086 16.0565C116.072 16.3046 116.059 16.533 116.038 16.7288H104.727C104.838 17.9886 105.32 18.9611 106.188 19.653C107.049 20.3448 108.302 20.6842 109.942 20.6842C110.906 20.6842 111.781 20.6059 112.58 20.4427C113.379 20.2796 114.006 20.1098 114.467 19.9336L114.991 22.9034C114.77 23.0013 114.474 23.1058 114.088 23.2167C113.703 23.3277 113.269 23.4256 112.78 23.517C112.291 23.6084 111.76 23.6801 111.189 23.7389C110.617 23.7976 110.038 23.8303 109.453 23.8303C107.944 23.8303 106.635 23.6279 105.52 23.2167C104.404 22.8055 103.488 22.2377 102.764 21.5066C102.041 20.7756 101.504 19.9206 101.159 18.9284C100.808 17.9429 100.636 16.8528 100.636 15.678L100.629 15.6845ZM112.139 14.0658C112.139 13.5632 112.063 13.0933 111.912 12.6429C111.76 12.1925 111.533 11.8009 111.237 11.4745C110.941 11.1482 110.582 10.8871 110.155 10.6978C109.728 10.5085 109.219 10.4106 108.633 10.4106C108.048 10.4106 107.483 10.5151 107.028 10.7239C106.567 10.9328 106.181 11.2069 105.864 11.5463C105.547 11.8858 105.299 12.2774 105.127 12.7147C104.955 13.152 104.831 13.6024 104.769 14.0658H112.146H112.139Z" fill="#065238" stroke="#183B32" stroke-width="0.5" stroke-miterlimit="10"/>
<path d="M123.841 20.8409C124.888 20.8409 125.653 20.7234 126.135 20.4949C126.617 20.2665 126.858 19.8683 126.858 19.3135C126.858 18.7914 126.604 18.3671 126.087 18.0277C125.57 17.6883 124.73 17.3163 123.545 16.9181C122.822 16.6766 122.161 16.4221 121.561 16.1544C120.962 15.8868 120.439 15.567 120.005 15.208C119.564 14.849 119.219 14.4117 118.971 13.9026C118.717 13.3935 118.593 12.7669 118.593 12.0293C118.593 10.5934 119.171 9.45768 120.328 8.62875C121.486 7.79981 123.063 7.38208 125.047 7.38208C126.052 7.38208 127.017 7.46693 127.933 7.63664C128.849 7.80634 129.538 7.96952 129.999 8.13269L129.276 11.0699C128.835 10.8871 128.284 10.7239 127.602 10.5738C126.927 10.4237 126.135 10.3519 125.24 10.3519C124.434 10.3519 123.773 10.4759 123.27 10.7239C122.767 10.972 122.519 11.3571 122.519 11.8792C122.519 12.1403 122.567 12.3688 122.664 12.5711C122.76 12.7734 122.932 12.9562 123.173 13.1259C123.414 13.2956 123.731 13.4653 124.124 13.635C124.516 13.8047 124.999 13.9809 125.563 14.1572C126.5 14.477 127.299 14.7903 127.961 15.1036C128.615 15.4169 129.159 15.7628 129.586 16.1544C130.013 16.5461 130.323 16.9899 130.523 17.486C130.723 17.9886 130.819 18.5825 130.819 19.2874C130.819 20.7887 130.213 21.9178 129.001 22.688C127.788 23.4582 126.053 23.8433 123.807 23.8433C122.298 23.8433 121.086 23.7258 120.17 23.4974C119.254 23.2689 118.606 23.0797 118.234 22.9426L118.923 19.914C119.516 20.136 120.218 20.3448 121.038 20.5406C121.858 20.743 122.794 20.8409 123.841 20.8409Z" fill="#065238" stroke="#183B32" stroke-width="0.5" stroke-miterlimit="10"/>
</svg>
